<svg width="125" height="24" viewBox="0 0 125 24" fill="none" xmlns="http://www.w3.org/2000/svg">
<path d="M11.7375 0C8.34799 0 0 8.53443 0 11.9999C0 15.4654 8.34799 24 11.7375 24C15.1271 24 23.4752 15.4653 23.4752 11.9999C23.4752 8.53458 15.1272 0 11.7375 0ZM9.90843 18.8619C8.47911 18.4637 4.63621 11.5912 5.02577 10.1299C5.41532 8.66856 12.1374 4.73984 13.5667 5.1381C14.9961 5.5363 18.839 12.4087 18.4494 13.87C18.0599 15.3314 11.3378 19.2602 9.90843 18.8619Z" fill="#6E54FF"/>
<path d="M39.8824 14.6595V14.6551L33.2131 2.07907C33.0818 1.83152 32.719 1.89081 32.6697 2.16785L29.3483 20.8454C29.3157 21.0284 29.4533 21.1969 29.6353 21.1969H32.205C32.346 21.1969 32.4668 21.0938 32.492 20.9519L34.4262 10.0539L39.6253 20.1871C39.7345 20.4 40.0326 20.4 40.1418 20.1871L45.3409 10.0539L47.2751 20.9519C47.3003 21.0938 47.4211 21.1969 47.5621 21.1969H50.1318C50.3138 21.1969 50.4514 21.0284 50.4188 20.8454L47.0974 2.16785C47.0481 1.89081 46.6853 1.83152 46.554 2.07907L39.8824 14.6595Z" fill="#FBFAF9"/>
<path d="M61.224 2.43164C55.9337 2.43164 51.7896 6.63458 51.7896 12.0011C51.7896 17.3676 55.9337 21.5729 61.224 21.5729C66.5006 21.5729 70.6345 17.3688 70.6345 12.0011C70.6345 6.63341 66.5006 2.43164 61.224 2.43164ZM61.224 18.3687C57.7742 18.3687 55.0713 15.5714 55.0713 12.0011C55.0713 8.43082 57.7742 5.63588 61.224 5.63588C64.6601 5.63588 67.3528 8.432 67.3528 12.0011C67.3528 15.5702 64.6601 18.3687 61.224 18.3687Z" fill="#FBFAF9"/>
<path d="M85.1754 14.1958L74.113 2.02259C73.9326 1.82406 73.6077 1.95457 73.6077 2.22555V20.899C73.6077 21.0637 73.7383 21.1972 73.8993 21.1972H76.5737C76.7348 21.1972 76.8653 21.0637 76.8653 20.899V9.78468L87.9033 21.9809C88.0835 22.18 88.4091 22.0496 88.4091 21.7784V3.10486C88.4091 2.94017 88.2785 2.80667 88.1174 2.80667H85.4671C85.306 2.80667 85.1754 2.94017 85.1754 3.10486V14.1958Z" fill="#FBFAF9"/>
<path d="M91.2449 21.1974H94.1165C94.2303 21.1974 94.3336 21.1298 94.3813 21.0242L96.5325 16.2612H103.412L105.514 21.0219C105.561 21.1287 105.665 21.1974 105.78 21.1974H108.896C109.111 21.1974 109.252 20.9675 109.158 20.7695L100.333 2.09716C100.227 1.87256 99.9139 1.87256 99.8078 2.09716L90.9823 20.7695C90.8887 20.9675 91.0298 21.1974 91.2449 21.1974ZM97.881 13.306L100.019 8.56282L102.117 13.306H97.881Z" fill="#FBFAF9"/>
<path d="M116.129 2.80664H111.716C111.555 2.80664 111.425 2.94015 111.425 3.10483V20.899C111.425 21.0636 111.555 21.1971 111.716 21.1971H116.129C121.6 21.1971 125 17.6736 125 12.0007C125 6.32781 121.6 2.80664 116.129 2.80664ZM116.129 18.042H114.707V5.93721H116.129C119.681 5.93721 121.718 8.14744 121.718 12.0007C121.718 15.84 119.681 18.042 116.129 18.042Z" fill="#FBFAF9"/>
</svg>
